# xmcd
#
# Track frame offsets:
#	150
#	18038
#	33831
#	53438
#	70585
#	87943
#	104916
#	125548
#	140920
#	157101
#	174210
#	187545
#	201262
#	225620
#
# Disc length: 3289 seconds
# Revision: 0
# Processed by: cddbd v1.5.2PL0 Copyright (c) Steve Scherf et al.
# Submitted via: dBpowerAMP V12.0
#
DISCID=b00cd70e
DTITLE=Zac Brown Band - Greatest Hits So Far
DYEAR=2014
DGENRE=Country
TTITLE0=Chicken Fried
TTITLE1=Whatever It Is
TTITLE2=Toes
TTITLE3=Free
TTITLE4=Highway 20 Ride
TTITLE5=As She's Walking Away
TTITLE6=Colder Weather
TTITLE7=Knee Deep
TTITLE8=Keep Me In Mind
TTITLE9=No Hurry
TTITLE10=The Wind
TTITLE11=Jump Right In
TTITLE12=Goodbye In Her Eyes
TTITLE13=Sweet Annie
EXTD=
EXTT0=
EXTT1=
EXTT2=
EXTT3=
EXTT4=
EXTT5=
EXTT6=
EXTT7=
EXTT8=
EXTT9=
EXTT10=
EXTT11=
EXTT12=
EXTT13=
PLAYORDER=
